<svg width="21" height="21" viewBox="0 0 21 21" fill="none" xmlns="http://www.w3.org/2000/svg">
<path d="M10.5 4.375L10.1464 4.02145L10.5 3.66789L10.8536 4.02145L10.5 4.375ZM11 12.25C11 12.5261 10.7761 12.75 10.5 12.75C10.2239 12.75 10 12.5261 10 12.25L11 12.25ZM5.77145 8.39645L10.1464 4.02145L10.8536 4.72855L6.47855 9.10355L5.77145 8.39645ZM10.8536 4.02145L15.2286 8.39645L14.5214 9.10355L10.1464 4.72855L10.8536 4.02145ZM11 4.375L11 12.25L10 12.25L10 4.375L11 4.375Z" fill="black"/>
<path d="M4.375 14L4.375 14.875C4.375 15.8415 5.1585 16.625 6.125 16.625L14.875 16.625C15.8415 16.625 16.625 15.8415 16.625 14.875V14" stroke="black"/>
</svg>
