<svg width="24" height="24" viewBox="0 0 24 24" fill="none" xmlns="http://www.w3.org/2000/svg">
<g clip-path="url(#clip0_512_6594)">
<path d="M19.844 12.1843C19.844 11.6405 19.7999 11.0937 19.7058 10.5587H12.16V13.6394H16.4811C16.3018 14.6329 15.7257 15.5119 14.882 16.0704V18.0693H17.46C18.9739 16.6759 19.844 14.6182 19.844 12.1843Z" fill="#4285F4"/>
<path d="M12.16 20.0005C14.3176 20.0005 16.1372 19.2921 17.4629 18.0692L14.885 16.0703C14.1677 16.5583 13.2417 16.8346 12.1629 16.8346C10.0758 16.8346 8.30623 15.4266 7.67128 13.5335H5.01099V15.5941C6.36906 18.2956 9.13518 20.0005 12.16 20.0005Z" fill="#34A853"/>
<path d="M7.66833 13.5336C7.33322 12.54 7.33322 11.4641 7.66833 10.4705V8.40991H5.01097C3.87631 10.6704 3.87631 13.3337 5.01097 15.5942L7.66833 13.5336Z" fill="#FBBC04"/>
<path d="M12.16 7.16644C13.3005 7.1488 14.4029 7.57798 15.2289 8.36578L17.5129 6.08174C16.0667 4.72367 14.1471 3.97702 12.16 4.00054C9.13518 4.00054 6.36906 5.70548 5.01099 8.40987L7.66834 10.4705C8.30035 8.57449 10.0729 7.16644 12.16 7.16644Z" fill="#EA4335"/>
</g>
<defs>
<clipPath id="clip0_512_6594">
<rect width="16" height="16" fill="white" transform="translate(4 4)"/>
</clipPath>
</defs>
</svg>
