<svg width="24" height="24" viewBox="0 0 24 24" fill="none" xmlns="http://www.w3.org/2000/svg">
<path d="M9.03168 18.5005C15.0694 18.5005 18.3718 13.4982 18.3718 9.16031C18.3718 9.01823 18.3718 8.87679 18.3622 8.73599C19.0047 8.27129 19.5593 7.69591 20 7.03679C19.4009 7.30239 18.7654 7.47649 18.1146 7.55327C18.7999 7.14306 19.3128 6.49779 19.5578 5.73759C18.9134 6.11999 18.2084 6.38947 17.4733 6.53439C16.9783 6.0081 16.3237 5.65961 15.6108 5.54284C14.8978 5.42607 14.1663 5.54753 13.5293 5.88842C12.8923 6.22931 12.3855 6.77064 12.0872 7.42862C11.7888 8.0866 11.7157 8.82456 11.879 9.52831C10.5739 9.46284 9.29717 9.12366 8.13164 8.53279C6.9661 7.94192 5.93784 7.11256 5.1136 6.09855C4.69382 6.82121 4.56525 7.6767 4.75407 8.49083C4.94288 9.30496 5.43489 10.0165 6.12992 10.4806C5.60749 10.4653 5.09643 10.3244 4.64 10.0697V10.1113C4.64021 10.8692 4.90257 11.6037 5.38258 12.1903C5.86259 12.7768 6.53071 13.1792 7.2736 13.3293C6.79032 13.4611 6.28325 13.4804 5.79136 13.3856C6.00121 14.0378 6.40962 14.6081 6.95949 15.0169C7.50937 15.4256 8.17322 15.6523 8.85824 15.6653C8.17763 16.2002 7.39821 16.5958 6.56458 16.8293C5.73096 17.0627 4.85948 17.1296 4 17.0259C5.50122 17.9893 7.24795 18.5002 9.03168 18.4979" fill="#1DA1F2"/>
</svg>
