<svg width="36" height="38" viewBox="0 0 36 38" fill="none" xmlns="http://www.w3.org/2000/svg">
    <path d="M35.1658 28.3334C33.1153 31.8848 29.9525 34.6622 26.1658 36.2365C22.3792 37.8107 18.1795 38.0942 14.2157 37.0432C10.2518 35.9921 6.74435 33.665 4.23522 30.4214C1.72609 27.1777 0.354914 23.1981 0.333546 19.0973C0.312178 14.9965 1.6418 11.0028 4.117 7.73316C6.59219 4.46355 10.0752 2.10001 14.0279 1.00771C17.9806 -0.0845921 22.183 0.155134 25.9858 1.68985C29.7887 3.22457 32.9803 5.96886 35.0676 9.49874L30.236 12.3558C28.7764 9.88736 26.5445 7.96828 23.8852 6.89505C21.2258 5.82183 18.2871 5.65419 15.523 6.41803C12.7589 7.18188 10.3232 8.8347 8.59233 11.1211C6.86143 13.4076 5.93163 16.2004 5.94657 19.068C5.96151 21.9357 6.92037 24.7187 8.675 26.9869C10.4296 29.2552 12.8824 30.8826 15.6543 31.6176C18.4262 32.3526 21.3631 32.1543 24.011 31.0534C26.659 29.9526 28.8708 28.0103 30.3047 25.5268L35.1658 28.3334Z" fill="url(#paint0_linear_664_3730)" fill-opacity="0.76"/>
    <defs>
    <linearGradient id="paint0_linear_664_3730" x1="28.3333" y1="2.83421" x2="9.66661" y2="35.1658" gradientUnits="userSpaceOnUse">
    <stop stop-color="#FF6764"/>
    <stop offset="1" stop-color="#89CFF0"/>
    </linearGradient>
    </defs>
</svg>
